<svg width="28" height="30" viewBox="0 0 28 30" fill="none" xmlns="http://www.w3.org/2000/svg">
<path d="M2.78157 11.0933H22.2526V13.8667H25.0341V5.54667C25.0341 4.02133 23.7824 2.77333 22.2526 2.77333H20.8618V0H18.0802V2.77333H6.95393V0H4.17236V2.77333H2.78157C1.2378 2.77333 0.0139078 4.02133 0.0139078 5.54667L0 24.96C0 26.4853 1.2378 27.7333 2.78157 27.7333H12.5171V24.96H2.78157V11.0933ZM2.78157 5.54667H22.2526V8.32H2.78157V5.54667ZM27.5932 19.8016L26.6057 20.7861L23.6573 17.8464L24.6447 16.8619C25.1871 16.3211 26.0633 16.3211 26.6057 16.8619L27.5932 17.8464C28.1356 18.3872 28.1356 19.2608 27.5932 19.8016ZM22.6698 18.8309L25.6183 21.7707L18.2471 29.12H15.2986V26.1803L22.6698 18.8309Z" fill="#999999"/>
</svg>
