<svg width="38" height="44" viewBox="0 0 38 44" fill="none" xmlns="http://www.w3.org/2000/svg">
<path d="M19 12C21.3433 12 23.2222 10.2 23.2222 8C23.2222 7.24 23.0111 6.54 22.61 5.94L19 0L15.39 5.94C14.9889 6.54 14.7778 7.24 14.7778 8C14.7778 10.2 16.6778 12 19 12ZM31.6667 18H21.1111V14H16.8889V18H6.33333C2.82889 18 0 20.68 0 24V42C0 43.1 0.95 44 2.11111 44H35.8889C37.05 44 38 43.1 38 42V24C38 20.68 35.1711 18 31.6667 18ZM33.7778 40H4.22222V34C6.12222 33.98 7.93778 33.26 9.28889 31.98L11.59 29.84L13.8489 31.98C16.6144 34.6 21.4278 34.58 24.1722 31.98L26.4522 29.84L28.7111 31.98C30.0622 33.26 31.8778 33.98 33.7778 34V40V40ZM33.7778 31C32.7011 30.98 31.6878 30.6 30.9278 29.86L26.4311 25.6L21.9133 29.86C20.3511 31.34 17.6278 31.34 16.0656 29.86L11.5689 25.6L7.05111 29.86C6.31222 30.58 5.29889 30.98 4.22222 31V24C4.22222 22.9 5.17222 22 6.33333 22H31.6667C32.8278 22 33.7778 22.9 33.7778 24V31Z" fill="#FFD4AB"/>
</svg>
