<svg width="32" height="30" viewBox="0 0 32 30" fill="none" xmlns="http://www.w3.org/2000/svg">
<path d="M16 8.1L17.552 11.7158L18.304 13.4684L20.224 13.6263L24.176 13.9579L21.168 16.5316L19.712 17.7789L20.144 19.6421L21.04 23.4474L17.648 21.4263L16 20.4158L14.352 21.3947L10.96 23.4158L11.856 19.6105L12.288 17.7474L10.832 16.5L7.824 13.9263L11.776 13.5947L13.696 13.4368L14.448 11.6842L16 8.1ZM16 0L11.504 10.4684L0 11.4316L8.736 18.9L6.112 30L16 24.1105L25.888 30L23.264 18.9L32 11.4316L20.496 10.4684L16 0Z" fill="#659AEA"/>
</svg>
