<svg width="46" height="56" viewBox="0 0 46 56" fill="none" xmlns="http://www.w3.org/2000/svg">
<path d="M23 56C26.1625 56 28.75 53.4154 28.75 50.2564H17.25C17.25 53.4154 19.8375 56 23 56ZM40.25 38.7692V24.4103C40.25 15.5938 35.5638 8.21333 27.3125 6.26051V4.30769C27.3125 1.9241 25.3862 0 23 0C20.6138 0 18.6875 1.9241 18.6875 4.30769V6.26051C10.465 8.21333 5.75 15.5651 5.75 24.4103V38.7692L0 44.5128V47.3846H46V44.5128L40.25 38.7692ZM34.5 41.641H11.5V24.4103C11.5 17.2882 15.8413 11.4872 23 11.4872C30.1588 11.4872 34.5 17.2882 34.5 24.4103V41.641Z" fill="#FF9E2C"/>
</svg>
