<svg width="19" height="18" viewBox="0 0 19 18" fill="none" xmlns="http://www.w3.org/2000/svg">
<path d="M9.47368 4.86L10.3926 7.02947L10.8379 8.08105L11.9747 8.17579L14.3147 8.37474L12.5337 9.91895L11.6716 10.6674L11.9274 11.7853L12.4579 14.0684L10.4495 12.8558L9.47368 12.2495L8.4979 12.8368L6.48947 14.0495L7.02 11.7663L7.27579 10.6484L6.41368 9.9L4.63263 8.35579L6.97263 8.15684L8.10947 8.06211L8.55474 7.01053L9.47368 4.86V4.86ZM9.47368 0L6.81158 6.28105L0 6.85895L5.17263 11.34L3.61895 18L9.47368 14.4663L15.3284 18L13.7747 11.34L18.9474 6.85895L12.1358 6.28105L9.47368 0Z" fill="#3667B1"/>
</svg>
